<?xml version="1.0" encoding="utf-8"?>
<!-- Generator: Adobe Illustrator 22.0.1, SVG Export Plug-In . SVG Version: 6.00 Build 0)  -->
<svg version="1.1" xmlns="http://www.w3.org/2000/svg" xmlns:xlink="http://www.w3.org/1999/xlink" x="0px" y="0px"
	 viewBox="0 0 500 500" style="enable-background:new 0 0 500 500;" xml:space="preserve">
<style type="text/css">
	.st0{enable-background:new    ;}
	.st1{fill-rule:evenodd;clip-rule:evenodd;fill:url(#SVGID_1_);}
	.st2{fill-rule:evenodd;clip-rule:evenodd;fill:#FFFFFF;}
</style>
<g id="Shape_4_1_" class="st0">
	<g id="Shape_4">
		<g>
			<linearGradient id="SVGID_1_" gradientUnits="userSpaceOnUse" x1="245.3962" y1="29.9944" x2="245.3962" y2="470.8172">
				<stop  offset="0" style="stop-color:#00A8FF"/>
				<stop  offset="1" style="stop-color:#341F97"/>
			</linearGradient>
			<path class="st1" d="M380.2,31.6C380.2,31.6,380.2,31.6,380.2,31.6C148.6-0.3,70.7,459.3,68.8,470.7c0,0.1,0.1,0.2,0.2,0.1
				l117.3-35c0,0,0.1,0,0.1-0.1c1.3-3.7,65.7-178.7,84.5-183.5C413.6,194.8,466.5,61.8,380.2,31.6z"/>
		</g>
	</g>
	<path class="st2" d="M376.4,27.5l0.2,3.6c0,0,5,0.9,6.8,1.6c1.8,0.7,0.8-4.9,0.8-4.9l-4.8-2.4l-3.7,0.3"/>
</g>
<g id="Layer_3">
</g>
</svg>
